<mxfile host="app.diagrams.net" modified="2023-11-14T13:05:15.615Z" agent="Mozilla/5.0 (Windows NT 10.0; Win64; x64) AppleWebKit/537.36 (KHTML, like Gecko) Chrome/119.0.0.0 Safari/537.36" etag="_kPFAzBXnF3D94EOzlAP" version="22.1.0" type="device">
  <diagram id="cX9Rxq1GDXvq4FwfHjqG" name="Page-1">
    <mxGraphModel dx="3134" dy="790" grid="1" gridSize="10" guides="1" tooltips="1" connect="1" arrows="1" fold="1" page="1" pageScale="1" pageWidth="850" pageHeight="1100" math="0" shadow="0">
      <root>
        <mxCell id="0" />
        <mxCell id="1" parent="0" />
        <mxCell id="XjySdd2gi-GwcaV57Ylc-87" style="rounded=0;orthogonalLoop=1;jettySize=auto;html=1;exitX=1;exitY=1;exitDx=0;exitDy=0;entryX=0;entryY=0;entryDx=0;entryDy=0;endArrow=none;endFill=0;" parent="1" source="XjySdd2gi-GwcaV57Ylc-42" target="XjySdd2gi-GwcaV57Ylc-86" edge="1">
          <mxGeometry relative="1" as="geometry" />
        </mxCell>
        <mxCell id="XjySdd2gi-GwcaV57Ylc-42" value="Prethodni lekarski izvestaj" style="rounded=0;whiteSpace=wrap;html=1;fontSize=14;" parent="1" vertex="1">
          <mxGeometry x="40" y="920" width="120" height="60" as="geometry" />
        </mxCell>
        <mxCell id="XjySdd2gi-GwcaV57Ylc-43" value="&lt;span style=&quot;font-size: 14px;&quot;&gt;Specijalista medicine rada&lt;/span&gt;" style="whiteSpace=wrap;html=1;align=center;" parent="1" vertex="1">
          <mxGeometry x="490" y="940" width="100" height="40" as="geometry" />
        </mxCell>
        <mxCell id="XjySdd2gi-GwcaV57Ylc-44" value="" style="edgeStyle=orthogonalEdgeStyle;rounded=0;orthogonalLoop=1;jettySize=auto;html=1;endArrow=none;endFill=0;" parent="1" source="XjySdd2gi-GwcaV57Ylc-48" target="XjySdd2gi-GwcaV57Ylc-42" edge="1">
          <mxGeometry relative="1" as="geometry">
            <mxPoint x="110" y="950" as="targetPoint" />
          </mxGeometry>
        </mxCell>
        <mxCell id="XjySdd2gi-GwcaV57Ylc-45" value="&lt;font style=&quot;font-size: 12px;&quot;&gt;(1,1) Izvrsen&lt;/font&gt;" style="edgeLabel;html=1;align=center;verticalAlign=middle;resizable=0;points=[];fontSize=12;" parent="XjySdd2gi-GwcaV57Ylc-44" vertex="1" connectable="0">
          <mxGeometry x="0.3385" y="1" relative="1" as="geometry">
            <mxPoint x="14" y="-11" as="offset" />
          </mxGeometry>
        </mxCell>
        <mxCell id="XjySdd2gi-GwcaV57Ylc-46" style="edgeStyle=orthogonalEdgeStyle;rounded=0;orthogonalLoop=1;jettySize=auto;html=1;exitX=1;exitY=0.5;exitDx=0;exitDy=0;entryX=0;entryY=0.5;entryDx=0;entryDy=0;endArrow=none;endFill=0;" parent="1" source="XjySdd2gi-GwcaV57Ylc-48" target="XjySdd2gi-GwcaV57Ylc-43" edge="1">
          <mxGeometry relative="1" as="geometry" />
        </mxCell>
        <mxCell id="XjySdd2gi-GwcaV57Ylc-47" value="(0,M) Izvrsio" style="edgeLabel;html=1;align=center;verticalAlign=middle;resizable=0;points=[];fontSize=12;" parent="XjySdd2gi-GwcaV57Ylc-46" vertex="1" connectable="0">
          <mxGeometry x="-0.0364" y="3" relative="1" as="geometry">
            <mxPoint x="-3" y="-7" as="offset" />
          </mxGeometry>
        </mxCell>
        <mxCell id="XjySdd2gi-GwcaV57Ylc-48" value="vrsenje pregleda" style="shape=rhombus;perimeter=rhombusPerimeter;whiteSpace=wrap;html=1;align=center;" parent="1" vertex="1">
          <mxGeometry x="230" y="925" width="150" height="70" as="geometry" />
        </mxCell>
        <mxCell id="XjySdd2gi-GwcaV57Ylc-49" value="ime&amp;nbsp;" style="ellipse;whiteSpace=wrap;html=1;align=center;" parent="1" vertex="1">
          <mxGeometry x="360" y="850" width="100" height="40" as="geometry" />
        </mxCell>
        <mxCell id="XjySdd2gi-GwcaV57Ylc-50" value="" style="endArrow=none;html=1;rounded=0;entryX=0.16;entryY=0.025;entryDx=0;entryDy=0;exitX=1;exitY=1;exitDx=0;exitDy=0;entryPerimeter=0;" parent="1" source="XjySdd2gi-GwcaV57Ylc-49" target="XjySdd2gi-GwcaV57Ylc-43" edge="1">
          <mxGeometry width="50" height="50" relative="1" as="geometry">
            <mxPoint x="520" y="1080" as="sourcePoint" />
            <mxPoint x="575" y="1028" as="targetPoint" />
          </mxGeometry>
        </mxCell>
        <mxCell id="XjySdd2gi-GwcaV57Ylc-51" value="id#" style="ellipse;whiteSpace=wrap;html=1;align=center;" parent="1" vertex="1">
          <mxGeometry x="580" y="850" width="100" height="40" as="geometry" />
        </mxCell>
        <mxCell id="XjySdd2gi-GwcaV57Ylc-52" value="" style="endArrow=none;html=1;rounded=0;entryX=1;entryY=0;entryDx=0;entryDy=0;exitX=0;exitY=1;exitDx=0;exitDy=0;" parent="1" source="XjySdd2gi-GwcaV57Ylc-51" target="XjySdd2gi-GwcaV57Ylc-43" edge="1">
          <mxGeometry width="50" height="50" relative="1" as="geometry">
            <mxPoint x="480" y="1010" as="sourcePoint" />
            <mxPoint x="575" y="1003" as="targetPoint" />
          </mxGeometry>
        </mxCell>
        <mxCell id="XjySdd2gi-GwcaV57Ylc-53" value="prezime" style="ellipse;whiteSpace=wrap;html=1;align=center;" parent="1" vertex="1">
          <mxGeometry x="480" y="830" width="100" height="40" as="geometry" />
        </mxCell>
        <mxCell id="XjySdd2gi-GwcaV57Ylc-54" value="" style="endArrow=none;html=1;rounded=0;entryX=0.63;entryY=0.025;entryDx=0;entryDy=0;exitX=0.5;exitY=1;exitDx=0;exitDy=0;entryPerimeter=0;" parent="1" source="XjySdd2gi-GwcaV57Ylc-53" target="XjySdd2gi-GwcaV57Ylc-43" edge="1">
          <mxGeometry width="50" height="50" relative="1" as="geometry">
            <mxPoint x="640" y="1070" as="sourcePoint" />
            <mxPoint x="735" y="1053" as="targetPoint" />
          </mxGeometry>
        </mxCell>
        <mxCell id="XjySdd2gi-GwcaV57Ylc-55" value="id#" style="ellipse;whiteSpace=wrap;html=1;align=center;" parent="1" vertex="1">
          <mxGeometry x="40" y="830.5" width="100" height="40" as="geometry" />
        </mxCell>
        <mxCell id="XjySdd2gi-GwcaV57Ylc-56" value="" style="endArrow=none;html=1;rounded=0;entryX=0.25;entryY=0;entryDx=0;entryDy=0;exitX=0.28;exitY=0.95;exitDx=0;exitDy=0;exitPerimeter=0;" parent="1" source="XjySdd2gi-GwcaV57Ylc-55" target="XjySdd2gi-GwcaV57Ylc-42" edge="1">
          <mxGeometry width="50" height="50" relative="1" as="geometry">
            <mxPoint x="110" y="1069.5" as="sourcePoint" />
            <mxPoint x="60" y="909.5" as="targetPoint" />
          </mxGeometry>
        </mxCell>
        <mxCell id="XjySdd2gi-GwcaV57Ylc-59" value="Zaposleni" style="rounded=0;whiteSpace=wrap;html=1;fontSize=14;" parent="1" vertex="1">
          <mxGeometry x="-460" y="925" width="120" height="60" as="geometry" />
        </mxCell>
        <mxCell id="XjySdd2gi-GwcaV57Ylc-60" value="" style="edgeStyle=orthogonalEdgeStyle;rounded=0;orthogonalLoop=1;jettySize=auto;html=1;endArrow=none;endFill=0;entryX=1;entryY=0.5;entryDx=0;entryDy=0;" parent="1" source="XjySdd2gi-GwcaV57Ylc-64" target="XjySdd2gi-GwcaV57Ylc-59" edge="1">
          <mxGeometry relative="1" as="geometry">
            <mxPoint x="-305" y="961" as="targetPoint" />
          </mxGeometry>
        </mxCell>
        <mxCell id="XjySdd2gi-GwcaV57Ylc-61" value="&lt;font style=&quot;font-size: 12px;&quot;&gt;(1,1) Izvrsen&lt;/font&gt;" style="edgeLabel;html=1;align=center;verticalAlign=middle;resizable=0;points=[];fontSize=12;" parent="XjySdd2gi-GwcaV57Ylc-60" vertex="1" connectable="0">
          <mxGeometry x="0.3385" y="1" relative="1" as="geometry">
            <mxPoint x="274" y="-6" as="offset" />
          </mxGeometry>
        </mxCell>
        <mxCell id="XjySdd2gi-GwcaV57Ylc-62" style="edgeStyle=orthogonalEdgeStyle;rounded=0;orthogonalLoop=1;jettySize=auto;html=1;exitX=1;exitY=0.5;exitDx=0;exitDy=0;entryX=0;entryY=0.75;entryDx=0;entryDy=0;endArrow=none;endFill=0;" parent="1" source="XjySdd2gi-GwcaV57Ylc-64" target="XjySdd2gi-GwcaV57Ylc-42" edge="1">
          <mxGeometry relative="1" as="geometry">
            <mxPoint x="25" y="966" as="targetPoint" />
          </mxGeometry>
        </mxCell>
        <mxCell id="XjySdd2gi-GwcaV57Ylc-63" value="(0,M) Uradio" style="edgeLabel;html=1;align=center;verticalAlign=middle;resizable=0;points=[];fontSize=12;" parent="XjySdd2gi-GwcaV57Ylc-62" vertex="1" connectable="0">
          <mxGeometry x="-0.0364" y="3" relative="1" as="geometry">
            <mxPoint x="-268" y="-25" as="offset" />
          </mxGeometry>
        </mxCell>
        <mxCell id="XjySdd2gi-GwcaV57Ylc-64" value="izvrsavanje lekarskog pregleda" style="shape=rhombus;perimeter=rhombusPerimeter;align=center;whiteSpace=wrap;html=1;spacingTop=0;spacing=2;spacingRight=2;spacingLeft=2;" parent="1" vertex="1">
          <mxGeometry x="-225" y="920" width="145" height="90" as="geometry" />
        </mxCell>
        <mxCell id="XjySdd2gi-GwcaV57Ylc-68" value="ime" style="ellipse;whiteSpace=wrap;html=1;align=center;" parent="1" vertex="1">
          <mxGeometry x="-585" y="809" width="100" height="40" as="geometry" />
        </mxCell>
        <mxCell id="XjySdd2gi-GwcaV57Ylc-69" value="" style="endArrow=none;html=1;rounded=0;entryX=0.158;entryY=0.017;entryDx=0;entryDy=0;exitX=1;exitY=1;exitDx=0;exitDy=0;entryPerimeter=0;" parent="1" source="XjySdd2gi-GwcaV57Ylc-68" target="XjySdd2gi-GwcaV57Ylc-59" edge="1">
          <mxGeometry width="50" height="50" relative="1" as="geometry">
            <mxPoint x="-425" y="1039" as="sourcePoint" />
            <mxPoint x="-442" y="902" as="targetPoint" />
          </mxGeometry>
        </mxCell>
        <mxCell id="XjySdd2gi-GwcaV57Ylc-70" value="jmbg#" style="ellipse;whiteSpace=wrap;html=1;align=center;" parent="1" vertex="1">
          <mxGeometry x="-365" y="809" width="100" height="40" as="geometry" />
        </mxCell>
        <mxCell id="XjySdd2gi-GwcaV57Ylc-71" value="" style="endArrow=none;html=1;rounded=0;entryX=0.842;entryY=0.033;entryDx=0;entryDy=0;exitX=0;exitY=1;exitDx=0;exitDy=0;entryPerimeter=0;" parent="1" source="XjySdd2gi-GwcaV57Ylc-70" target="XjySdd2gi-GwcaV57Ylc-59" edge="1">
          <mxGeometry width="50" height="50" relative="1" as="geometry">
            <mxPoint x="-465" y="969" as="sourcePoint" />
            <mxPoint x="-365" y="901" as="targetPoint" />
          </mxGeometry>
        </mxCell>
        <mxCell id="XjySdd2gi-GwcaV57Ylc-72" value="prezime" style="ellipse;whiteSpace=wrap;html=1;align=center;" parent="1" vertex="1">
          <mxGeometry x="-465" y="789" width="100" height="40" as="geometry" />
        </mxCell>
        <mxCell id="XjySdd2gi-GwcaV57Ylc-73" value="" style="endArrow=none;html=1;rounded=0;entryX=0.558;entryY=0.05;entryDx=0;entryDy=0;exitX=0.65;exitY=1.1;exitDx=0;exitDy=0;exitPerimeter=0;entryPerimeter=0;" parent="1" source="XjySdd2gi-GwcaV57Ylc-72" target="XjySdd2gi-GwcaV57Ylc-59" edge="1">
          <mxGeometry width="50" height="50" relative="1" as="geometry">
            <mxPoint x="-305" y="1029" as="sourcePoint" />
            <mxPoint x="-388" y="898" as="targetPoint" />
          </mxGeometry>
        </mxCell>
        <mxCell id="XjySdd2gi-GwcaV57Ylc-74" value="naziv zanimanja" style="ellipse;whiteSpace=wrap;html=1;align=center;" parent="1" vertex="1">
          <mxGeometry x="-639" y="991" width="130" height="60" as="geometry" />
        </mxCell>
        <mxCell id="XjySdd2gi-GwcaV57Ylc-75" value="" style="endArrow=none;html=1;rounded=0;entryX=0;entryY=0.883;entryDx=0;entryDy=0;exitX=1;exitY=0;exitDx=0;exitDy=0;entryPerimeter=0;" parent="1" source="XjySdd2gi-GwcaV57Ylc-74" target="XjySdd2gi-GwcaV57Ylc-59" edge="1">
          <mxGeometry width="50" height="50" relative="1" as="geometry">
            <mxPoint x="-519" y="1011" as="sourcePoint" />
            <mxPoint x="-459" y="959" as="targetPoint" />
          </mxGeometry>
        </mxCell>
        <mxCell id="XjySdd2gi-GwcaV57Ylc-76" value="godina rodjenja" style="ellipse;whiteSpace=wrap;html=1;align=center;" parent="1" vertex="1">
          <mxGeometry x="-649" y="931" width="100" height="40" as="geometry" />
        </mxCell>
        <mxCell id="XjySdd2gi-GwcaV57Ylc-77" value="" style="endArrow=none;html=1;rounded=0;entryX=0;entryY=0.5;entryDx=0;entryDy=0;exitX=1;exitY=0.5;exitDx=0;exitDy=0;" parent="1" source="XjySdd2gi-GwcaV57Ylc-76" target="XjySdd2gi-GwcaV57Ylc-59" edge="1">
          <mxGeometry width="50" height="50" relative="1" as="geometry">
            <mxPoint x="-559" y="951" as="sourcePoint" />
            <mxPoint x="-459" y="941" as="targetPoint" />
          </mxGeometry>
        </mxCell>
        <mxCell id="XjySdd2gi-GwcaV57Ylc-82" value="sluzba medicine rada" style="ellipse;whiteSpace=wrap;html=1;" parent="1" vertex="1">
          <mxGeometry x="-50" y="1060" width="120" height="80" as="geometry" />
        </mxCell>
        <mxCell id="XjySdd2gi-GwcaV57Ylc-83" style="rounded=0;orthogonalLoop=1;jettySize=auto;html=1;exitX=0.5;exitY=0;exitDx=0;exitDy=0;entryX=0;entryY=1;entryDx=0;entryDy=0;endArrow=none;endFill=0;" parent="1" source="XjySdd2gi-GwcaV57Ylc-82" target="XjySdd2gi-GwcaV57Ylc-42" edge="1">
          <mxGeometry relative="1" as="geometry" />
        </mxCell>
        <mxCell id="XjySdd2gi-GwcaV57Ylc-84" value="datum pregleda" style="ellipse;whiteSpace=wrap;html=1;" parent="1" vertex="1">
          <mxGeometry x="80" y="1060" width="120" height="80" as="geometry" />
        </mxCell>
        <mxCell id="XjySdd2gi-GwcaV57Ylc-85" style="rounded=0;orthogonalLoop=1;jettySize=auto;html=1;exitX=0.5;exitY=0;exitDx=0;exitDy=0;entryX=0.5;entryY=1;entryDx=0;entryDy=0;endArrow=none;endFill=0;" parent="1" source="XjySdd2gi-GwcaV57Ylc-84" target="XjySdd2gi-GwcaV57Ylc-42" edge="1">
          <mxGeometry relative="1" as="geometry">
            <mxPoint x="170" y="985" as="targetPoint" />
          </mxGeometry>
        </mxCell>
        <mxCell id="XjySdd2gi-GwcaV57Ylc-86" value="broj ambulantnog protokola" style="ellipse;whiteSpace=wrap;html=1;" parent="1" vertex="1">
          <mxGeometry x="230" y="1051" width="120" height="80" as="geometry" />
        </mxCell>
        <mxCell id="XjySdd2gi-GwcaV57Ylc-92" style="rounded=0;orthogonalLoop=1;jettySize=auto;html=1;entryX=0.75;entryY=1;entryDx=0;entryDy=0;endArrow=none;endFill=0;" parent="1" source="XjySdd2gi-GwcaV57Ylc-90" target="XjySdd2gi-GwcaV57Ylc-59" edge="1">
          <mxGeometry relative="1" as="geometry" />
        </mxCell>
        <mxCell id="XjySdd2gi-GwcaV57Ylc-90" value="broj zdravstvenog kartona" style="ellipse;whiteSpace=wrap;html=1;align=center;" parent="1" vertex="1">
          <mxGeometry x="-365" y="1023" width="130" height="60" as="geometry" />
        </mxCell>
        <mxCell id="XjySdd2gi-GwcaV57Ylc-94" style="rounded=0;orthogonalLoop=1;jettySize=auto;html=1;exitX=0;exitY=1;exitDx=0;exitDy=0;entryX=0.75;entryY=0;entryDx=0;entryDy=0;endArrow=none;endFill=0;" parent="1" source="XjySdd2gi-GwcaV57Ylc-93" target="XjySdd2gi-GwcaV57Ylc-42" edge="1">
          <mxGeometry relative="1" as="geometry" />
        </mxCell>
        <mxCell id="XjySdd2gi-GwcaV57Ylc-93" value="sposobnost bavljenja poslom" style="ellipse;whiteSpace=wrap;html=1;" parent="1" vertex="1">
          <mxGeometry x="160" y="810" width="120" height="80" as="geometry" />
        </mxCell>
        <mxCell id="_hyh8Y8Zs1fLl7PGlRmL-1" value="" style="rounded=0;orthogonalLoop=1;jettySize=auto;html=1;exitX=1;exitY=0.5;exitDx=0;exitDy=0;entryX=0;entryY=0.5;entryDx=0;entryDy=0;endArrow=none;endFill=0;" edge="1" parent="1" source="_hyh8Y8Zs1fLl7PGlRmL-6" target="_hyh8Y8Zs1fLl7PGlRmL-2">
          <mxGeometry relative="1" as="geometry">
            <mxPoint x="-770" y="1159" as="sourcePoint" />
          </mxGeometry>
        </mxCell>
        <mxCell id="_hyh8Y8Zs1fLl7PGlRmL-2" value="Radi" style="rhombus;whiteSpace=wrap;html=1;" vertex="1" parent="1">
          <mxGeometry x="-550" y="1100" width="100" height="69" as="geometry" />
        </mxCell>
        <mxCell id="_hyh8Y8Zs1fLl7PGlRmL-3" style="edgeStyle=orthogonalEdgeStyle;rounded=0;orthogonalLoop=1;jettySize=auto;html=1;exitX=1;exitY=0.5;exitDx=0;exitDy=0;entryX=0.5;entryY=1;entryDx=0;entryDy=0;endArrow=none;endFill=0;" edge="1" parent="1" source="_hyh8Y8Zs1fLl7PGlRmL-2" target="XjySdd2gi-GwcaV57Ylc-59">
          <mxGeometry relative="1" as="geometry">
            <mxPoint x="-408.9699999999998" y="991" as="targetPoint" />
          </mxGeometry>
        </mxCell>
        <mxCell id="_hyh8Y8Zs1fLl7PGlRmL-4" value="(0,M) Zaposljava" style="edgeLabel;html=1;align=center;verticalAlign=middle;resizable=0;points=[];fontSize=12;" vertex="1" connectable="0" parent="1">
          <mxGeometry x="-648.9952941176468" y="1169" as="geometry">
            <mxPoint x="-15" y="-6" as="offset" />
          </mxGeometry>
        </mxCell>
        <mxCell id="_hyh8Y8Zs1fLl7PGlRmL-5" value="(0,1) Zaposljen" style="edgeLabel;html=1;align=center;verticalAlign=middle;resizable=0;points=[];fontSize=12;" vertex="1" connectable="0" parent="1">
          <mxGeometry x="-399.99529411764684" y="1021" as="geometry">
            <mxPoint x="-17" y="-3" as="offset" />
          </mxGeometry>
        </mxCell>
        <mxCell id="_hyh8Y8Zs1fLl7PGlRmL-6" value="Radno mesto" style="rounded=0;whiteSpace=wrap;html=1;fontSize=14;" vertex="1" parent="1">
          <mxGeometry x="-880" y="1120" width="120" height="60" as="geometry" />
        </mxCell>
        <mxCell id="_hyh8Y8Zs1fLl7PGlRmL-7" value="id#" style="ellipse;whiteSpace=wrap;html=1;align=center;" vertex="1" parent="1">
          <mxGeometry x="-880" y="1039" width="60" height="31.5" as="geometry" />
        </mxCell>
        <mxCell id="_hyh8Y8Zs1fLl7PGlRmL-8" value="" style="endArrow=none;html=1;rounded=0;entryX=0.25;entryY=0;entryDx=0;entryDy=0;exitX=0.28;exitY=0.95;exitDx=0;exitDy=0;exitPerimeter=0;" edge="1" parent="1" source="_hyh8Y8Zs1fLl7PGlRmL-7" target="_hyh8Y8Zs1fLl7PGlRmL-6">
          <mxGeometry width="50" height="50" relative="1" as="geometry">
            <mxPoint x="-830" y="1269.5" as="sourcePoint" />
            <mxPoint x="-880" y="1109.5" as="targetPoint" />
          </mxGeometry>
        </mxCell>
        <mxCell id="_hyh8Y8Zs1fLl7PGlRmL-9" value="opis poslova" style="ellipse;whiteSpace=wrap;html=1;" vertex="1" parent="1">
          <mxGeometry x="-877.5" y="1209" width="75" height="39" as="geometry" />
        </mxCell>
        <mxCell id="_hyh8Y8Zs1fLl7PGlRmL-10" style="rounded=0;orthogonalLoop=1;jettySize=auto;html=1;exitX=0.5;exitY=0;exitDx=0;exitDy=0;entryX=0.5;entryY=1;entryDx=0;entryDy=0;endArrow=none;endFill=0;" edge="1" parent="1" source="_hyh8Y8Zs1fLl7PGlRmL-9" target="_hyh8Y8Zs1fLl7PGlRmL-6">
          <mxGeometry relative="1" as="geometry">
            <mxPoint x="-770" y="1185" as="targetPoint" />
          </mxGeometry>
        </mxCell>
        <mxCell id="_hyh8Y8Zs1fLl7PGlRmL-11" style="rounded=0;orthogonalLoop=1;jettySize=auto;html=1;exitX=0;exitY=1;exitDx=0;exitDy=0;entryX=0.75;entryY=0;entryDx=0;entryDy=0;endArrow=none;endFill=0;" edge="1" parent="1" source="_hyh8Y8Zs1fLl7PGlRmL-12" target="_hyh8Y8Zs1fLl7PGlRmL-6">
          <mxGeometry relative="1" as="geometry" />
        </mxCell>
        <mxCell id="_hyh8Y8Zs1fLl7PGlRmL-12" value="naziv rm" style="ellipse;whiteSpace=wrap;html=1;" vertex="1" parent="1">
          <mxGeometry x="-780" y="1059" width="70" height="31" as="geometry" />
        </mxCell>
      </root>
    </mxGraphModel>
  </diagram>
</mxfile>
